HIERARCHY
ROOT pelvis
{
	OFFSET 0.003123 -0.351407 0.012037
	CHANNELS 6 Xposition Yposition Zposition Zrotation Yrotation Xrotation 
	JOINT left_hip
	{
		OFFSET 0.058189 -0.092763 -0.026001
		CHANNELS 3 Zrotation Yrotation Xrotation
		JOINT left_knee
		{
			OFFSET 0.054695 -0.378753 -0.009396
			CHANNELS 3 Zrotation Yrotation Xrotation
			JOINT left_ankle
			{
				OFFSET -0.043453 -0.403059 -0.031876
				CHANNELS 3 Zrotation Yrotation Xrotation
				JOINT left_foot
				{
					OFFSET 0.047257 -0.057997 0.118216
					CHANNELS 3 Zrotation Yrotation Xrotation
					End Site
					{
						OFFSET 0.000000 0.000000 0.000000
					}
				}
			}
		}
	}
	JOINT right_hip
	{
		OFFSET -0.063267 -0.103908 -0.021250
		CHANNELS 3 Zrotation Yrotation Xrotation
		JOINT right_knee
		{
			OFFSET -0.044210 -0.362380 -0.016824
			CHANNELS 3 Zrotation Yrotation Xrotation
			JOINT right_ankle
			{
				OFFSET 0.015417 -0.410728 -0.020192
				CHANNELS 3 Zrotation Yrotation Xrotation
				JOINT right_foot
				{
					OFFSET -0.038812 -0.058328 0.119049
					CHANNELS 3 Zrotation Yrotation Xrotation
					End Site
					{
						OFFSET 0.000000 0.000000 0.000000
					}
				}
			}
		}
	}
	JOINT spine_1
	{
		OFFSET -0.002763 0.109891 -0.027618
		CHANNELS 3 Zrotation Yrotation Xrotation
		JOINT spine_2
		{
			OFFSET 0.009448 0.131853 -0.005940
			CHANNELS 3 Zrotation Yrotation Xrotation
			JOINT spine_3
			{
				OFFSET -0.011330 0.052235 0.028447
				CHANNELS 3 Zrotation Yrotation Xrotation
				JOINT neck
				{
					OFFSET -0.012164 0.165167 -0.031615
					CHANNELS 3 Zrotation Yrotation Xrotation
					JOINT head
					{
						OFFSET 0.024783 0.160452 0.020737
						CHANNELS 3 Zrotation Yrotation Xrotation
						End Site
						{
							OFFSET 0.000000 0.000000 0.000000
						}
					}
				}
				JOINT left_collar
				{
					OFFSET 0.046364 0.084944 -0.007220
					CHANNELS 3 Zrotation Yrotation Xrotation
					JOINT left_shoulder
					{
						OFFSET 0.119239 0.057728 -0.015461
						CHANNELS 3 Zrotation Yrotation Xrotation
						JOINT left_elbow
						{
							OFFSET 0.254123 -0.072151 -0.042459
							CHANNELS 3 Zrotation Yrotation Xrotation
							JOINT left_wrist
							{
								OFFSET 0.251987 0.023221 -0.002472
								CHANNELS 3 Zrotation Yrotation Xrotation
								JOINT left_index_1
								{
									OFFSET 0.101902 -0.008688 0.019351
									CHANNELS 3 Zrotation Yrotation Xrotation
									JOINT left_index_2
									{
										OFFSET 0.030149 -0.011154 0.001151
										CHANNELS 3 Zrotation Yrotation Xrotation
										JOINT left_index_3
										{
											OFFSET 0.006504 -0.021577 -0.002433
											CHANNELS 3 Zrotation Yrotation Xrotation
											End Site
											{
												OFFSET 0.000000 0.000000 0.000000
											}
										}
									}
								}
								JOINT left_middle_1
								{
									OFFSET 0.109398 -0.006328 -0.003981
									CHANNELS 3 Zrotation Yrotation Xrotation
									JOINT left_middle_2
									{
										OFFSET 0.026472 -0.015218 -0.004641
										CHANNELS 3 Zrotation Yrotation Xrotation
										JOINT left_middle_3
										{
											OFFSET 0.005022 -0.023347 -0.001911
											CHANNELS 3 Zrotation Yrotation Xrotation
											End Site
											{
												OFFSET 0.000000 0.000000 0.000000
											}
										}
									}
								}
								JOINT left_pinky_1
								{
									OFFSET 0.084047 -0.014539 -0.043750
									CHANNELS 3 Zrotation Yrotation Xrotation
									JOINT left_pinky_2
									{
										OFFSET 0.012124 -0.014448 -0.005375
										CHANNELS 3 Zrotation Yrotation Xrotation
										JOINT left_pinky_3
										{
											OFFSET 0.003798 -0.018853 0.000167
											CHANNELS 3 Zrotation Yrotation Xrotation
											End Site
											{
												OFFSET 0.000000 0.000000 0.000000
											}
										}
									}
								}
								JOINT left_ring_1
								{
									OFFSET 0.097444 -0.009268 -0.027345
									CHANNELS 3 Zrotation Yrotation Xrotation
									JOINT left_ring_2
									{
										OFFSET 0.023561 -0.016057 -0.001895
										CHANNELS 3 Zrotation Yrotation Xrotation
										JOINT left_ring_3
										{
											OFFSET 0.004257 -0.023548 0.000814
											CHANNELS 3 Zrotation Yrotation Xrotation
											End Site
											{
												OFFSET 0.000000 0.000000 0.000000
											}
										}
									}
								}
								JOINT left_thumb_1
								{
									OFFSET 0.040636 -0.017977 0.025611
									CHANNELS 3 Zrotation Yrotation Xrotation
									JOINT left_thumb_2
									{
										OFFSET 0.021637 -0.017639 0.011623
										CHANNELS 3 Zrotation Yrotation Xrotation
										JOINT left_thumb_3
										{
											OFFSET 0.024002 -0.008356 0.006548
											CHANNELS 3 Zrotation Yrotation Xrotation
											End Site
											{
												OFFSET 0.000000 0.000000 0.000000
											}
										}
									}
								}
							}
						}
					}
				}
				JOINT right_collar
				{
					OFFSET -0.047695 0.084339 -0.013400
					CHANNELS 3 Zrotation Yrotation Xrotation
					JOINT right_shoulder
					{
						OFFSET -0.102578 0.053524 -0.012669
						CHANNELS 3 Zrotation Yrotation Xrotation
						JOINT right_elbow
						{
							OFFSET -0.271150 -0.036492 -0.026467
							CHANNELS 3 Zrotation Yrotation Xrotation
							JOINT right_wrist
							{
								OFFSET -0.249267 -0.004533 -0.015325
								CHANNELS 3 Zrotation Yrotation Xrotation
								JOINT right_index_1
								{
									OFFSET -0.099881 -0.011783 0.019600
									CHANNELS 3 Zrotation Yrotation Xrotation
									JOINT right_index_2
									{
										OFFSET -0.030148 -0.011154 0.001151
										CHANNELS 3 Zrotation Yrotation Xrotation
										JOINT right_index_3
										{
											OFFSET -0.006505 -0.021577 -0.002432
											CHANNELS 3 Zrotation Yrotation Xrotation
											End Site
											{
												OFFSET 0.000000 0.000000 0.000000
											}
										}
									}
								}
								JOINT right_middle_1
								{
									OFFSET -0.107376 -0.009422 -0.003734
									CHANNELS 3 Zrotation Yrotation Xrotation
									JOINT right_middle_2
									{
										OFFSET -0.026472 -0.015218 -0.004641
										CHANNELS 3 Zrotation Yrotation Xrotation
										JOINT right_middle_3
										{
											OFFSET -0.005022 -0.023347 -0.001911
											CHANNELS 3 Zrotation Yrotation Xrotation
											End Site
											{
												OFFSET 0.000000 0.000000 0.000000
											}
										}
									}
								}
								JOINT right_pinky_1
								{
									OFFSET -0.082027 -0.017634 -0.043503
									CHANNELS 3 Zrotation Yrotation Xrotation
									JOINT right_pinky_2
									{
										OFFSET -0.012123 -0.014448 -0.005374
										CHANNELS 3 Zrotation Yrotation Xrotation
										JOINT right_pinky_3
										{
											OFFSET -0.003798 -0.018852 0.000167
											CHANNELS 3 Zrotation Yrotation Xrotation
											End Site
											{
												OFFSET 0.000000 0.000000 0.000000
											}
										}
									}
								}
								JOINT right_ring_1
								{
									OFFSET -0.095423 -0.012362 -0.027099
									CHANNELS 3 Zrotation Yrotation Xrotation
									JOINT right_ring_2
									{
										OFFSET -0.023561 -0.016057 -0.001895
										CHANNELS 3 Zrotation Yrotation Xrotation
										JOINT right_ring_3
										{
											OFFSET -0.004257 -0.023548 0.000816
											CHANNELS 3 Zrotation Yrotation Xrotation
											End Site
											{
												OFFSET 0.000000 0.000000 0.000000
											}
										}
									}
								}
								JOINT right_thumb_1
								{
									OFFSET -0.038613 -0.021074 0.025861
									CHANNELS 3 Zrotation Yrotation Xrotation
									JOINT right_thumb_2
									{
										OFFSET -0.021636 -0.017639 0.011623
										CHANNELS 3 Zrotation Yrotation Xrotation
										JOINT right_thumb_3
										{
											OFFSET -0.024004 -0.008353 0.006547
											CHANNELS 3 Zrotation Yrotation Xrotation
											End Site
											{
												OFFSET 0.000000 0.000000 0.000000
											}
										}
									}
								}
							}
						}
					}
				}
			}
		}
	}
}
MOTION
Frames: 5
Frame Time: 0.050000
0.114979 0.936911 0.682968 2.038570 9.868603 1.953209 -5.318658 2.154427 10.912976 -4.313898 0.632451 -7.029925 -0.124337 0.536019 0.859402 0.000000 0.000000 0.000000 -3.607165 1.316511 -17.284182 -1.789268 0.663315 13.637148 3.315615 5.665213 1.707897 0.000000 0.000000 0.000000 3.638875 -1.781393 18.265111 -5.951916 0.733179 -10.710462 11.134023 0.938237 24.226452 6.086429 2.044213 -15.323196 0.000000 0.000000 0.000000 -6.146917 -9.924255 4.288326 -53.920693 -0.282205 -10.717351 -14.091993 -49.433642 11.421729 -6.318898 2.519761 7.178182 -15.510243 2.257548 0.827220 -14.349305 5.691643 6.573360 0.000000 0.000000 0.000000 -15.008301 -2.817920 -4.052201 -26.557634 0.745625 -5.724718 0.000000 0.000000 0.000000 2.425322 -13.629255 -15.151626 -42.633038 -10.192925 -18.349349 0.000000 0.000000 0.000000 -13.608007 -4.023977 -3.471904 -37.576132 -7.483672 -14.607758 0.000000 0.000000 0.000000 7.847399 27.336857 26.505920 -1.845471 -17.175214 -4.812963 0.000000 0.000000 0.000000 6.815939 3.636347 2.070199 41.294506 23.271261 1.432433 -35.416984 50.187253 -14.687458 -4.028436 -3.532097 -35.735275 6.145421 1.219860 0.189949 19.050018 8.303681 -10.341013 0.000000 0.000000 0.000000 13.811466 9.485882 -4.576635 13.238314 11.355652 -22.988202 0.000000 0.000000 0.000000 7.520084 20.765929 -25.226753 8.548232 3.880710 -8.829191 0.000000 0.000000 0.000000 17.819112 14.967029 -5.543463 2.761877 11.314299 -27.331809 0.000000 0.000000 0.000000 -11.619010 -22.716137 8.159098 9.915445 10.626066 -2.085679 0.000000 0.000000 0.000000 
0.116863 0.937233 0.682968 2.263182 10.809987 2.363923 -5.422394 2.027669 10.105988 -4.384108 0.566070 -6.168744 -0.410348 -0.171434 0.674270 0.000000 0.000000 0.000000 -3.955170 1.237727 -17.450654 -1.926499 0.670104 13.556687 2.986103 4.955857 1.817747 0.000000 0.000000 0.000000 3.493465 -1.589555 16.848162 -5.310746 0.664466 -9.964280 10.964394 0.498147 24.414516 5.852263 2.079274 -15.488525 0.000000 0.000000 0.000000 -6.830657 -10.437625 4.504976 -53.486598 -0.606775 -10.577913 -13.226012 -49.345613 10.972496 -6.497493 2.204368 7.281558 -16.032299 2.930034 0.988452 -14.113628 5.630315 6.501156 0.000000 0.000000 0.000000 -16.017856 -2.010376 -3.872857 -25.829398 0.733861 -5.664127 0.000000 0.000000 0.000000 0.740463 -12.944100 -14.638363 -40.043367 -11.353539 -21.540668 0.000000 0.000000 0.000000 -14.593540 -3.313972 -3.183005 -37.318233 -7.345832 -14.513527 0.000000 0.000000 0.000000 7.663817 27.500239 26.743438 -1.665177 -17.163393 -4.884805 0.000000 0.000000 0.000000 7.147711 2.967164 1.681731 40.767344 23.525450 1.415786 -34.760915 49.833113 -14.227480 -3.308575 -4.014437 -36.562916 6.335283 3.403122 -0.013571 31.523446 7.805488 -3.054297 0.000000 0.000000 0.000000 13.471293 11.381713 -5.244337 12.629968 11.045097 -22.483997 0.000000 0.000000 0.000000 9.537608 20.909365 -24.677415 4.417476 3.887756 -9.647836 0.000000 0.000000 0.000000 21.931505 14.441524 -4.054159 6.127569 12.845176 -27.131118 0.000000 0.000000 0.000000 -11.325808 -22.284242 7.734022 9.793673 10.662400 -2.171201 0.000000 0.000000 0.000000 
0.118277 0.937555 0.680328 2.376898 9.640080 1.896548 -5.902921 2.166398 10.513797 -4.390691 0.600766 -6.374071 -0.123392 0.629728 0.962715 0.000000 0.000000 0.000000 -3.912471 1.300351 -17.645722 -2.316558 0.780837 14.174663 3.541421 5.893708 2.034628 0.000000 0.000000 0.000000 3.094291 -1.627253 17.615669 -5.568538 0.698779 -10.131706 11.029931 1.067302 24.293783 6.070292 2.007573 -15.129197 0.000000 0.000000 0.000000 -6.594288 -9.948229 4.266112 -53.546495 -0.316138 -10.616033 -14.150862 -49.554482 11.477242 -5.155822 2.791851 7.053970 -19.365997 2.119395 0.727821 -10.233034 5.864309 9.101222 0.000000 0.000000 0.000000 -16.935567 -1.855127 -3.931879 -24.419960 0.224354 -6.362645 0.000000 0.000000 0.000000 0.117532 -12.561575 -14.292448 -41.063864 -11.738435 -21.493445 0.000000 0.000000 0.000000 -15.565140 -3.071991 -3.105675 -35.279033 -7.066593 -14.372654 0.000000 0.000000 0.000000 7.621436 28.269054 27.540098 -1.304886 -18.190825 -5.370615 0.000000 0.000000 0.000000 6.964273 3.750978 2.141288 40.761911 23.550915 1.410725 -34.958745 49.392799 -14.193508 -3.478241 -3.698509 -37.014201 5.016576 3.903493 -0.188276 25.733731 7.524953 -4.200185 0.000000 0.000000 0.000000 11.627564 12.001678 -5.595401 20.493323 11.088959 -16.966201 0.000000 0.000000 0.000000 6.170737 20.782437 -25.643469 3.884754 4.670134 -11.593665 0.000000 0.000000 0.000000 19.491405 14.679641 -4.815766 4.012964 11.812874 -26.812507 0.000000 0.000000 0.000000 -10.705299 -24.176412 9.373110 6.773742 15.432970 -5.207776 0.000000 0.000000 0.000000 
0.120161 0.937878 0.677689 2.464708 10.532661 1.478681 -5.799612 2.137916 10.511095 -4.513865 0.535746 -5.503681 -0.445088 -0.452573 0.445311 0.000000 0.000000 0.000000 -4.274883 1.186674 -17.184854 -2.181519 0.740769 14.243511 3.278655 5.280546 2.200318 0.000000 0.000000 0.000000 3.365905 -1.732048 18.205919 -5.818418 0.493522 -11.599071 10.901393 -0.583517 25.400356 5.889645 2.029004 -15.321322 0.000000 0.000000 0.000000 -7.067240 -8.923246 3.730090 -53.022268 -0.447585 -10.426796 -14.499956 -49.223590 11.644304 -5.702743 2.771709 7.238960 -17.934227 1.456711 0.594004 -13.033334 6.564940 8.948962 0.000000 0.000000 0.000000 -15.699474 -2.488678 -4.003767 -27.464536 -0.059006 -7.482560 0.000000 0.000000 0.000000 2.178628 -13.778146 -15.304453 -45.669682 -11.865808 -19.903978 0.000000 0.000000 0.000000 -16.370481 -4.855403 -4.053647 -35.514420 -7.312329 -14.743567 0.000000 0.000000 0.000000 8.345058 27.553009 26.764181 -2.994846 -16.364087 -4.031573 0.000000 0.000000 0.000000 7.009694 4.216500 2.369077 40.026887 24.652204 1.417491 -33.842693 48.309495 -13.431846 -3.413612 -3.190600 -37.138873 4.959039 4.117261 -0.225235 24.133099 7.381538 -4.574663 0.000000 0.000000 0.000000 14.909863 9.286407 -4.367607 14.138493 11.432116 -22.060795 0.000000 0.000000 0.000000 8.457266 20.288400 -24.357388 4.991674 5.145636 -12.411099 0.000000 0.000000 0.000000 18.645961 16.000294 -5.714047 3.966649 10.940609 -24.931193 0.000000 0.000000 0.000000 -10.625674 -23.214157 8.597030 9.234816 10.573965 -2.434597 0.000000 0.000000 0.000000 
0.122046 0.938361 0.675049 2.362393 9.510723 1.340329 -6.057256 2.171970 10.451277 -4.475696 0.561746 -5.605376 -0.247409 0.195951 0.744507 0.000000 0.000000 0.000000 -4.058656 1.268613 -17.383982 -2.539307 0.826471 14.203144 3.835690 6.045153 2.677269 0.000000 0.000000 0.000000 3.396725 -1.643382 17.532609 -5.905815 0.635273 -11.002496 10.925054 0.907579 25.221007 6.019209 2.002117 -15.177609 0.000000 0.000000 0.000000 -7.104550 -10.050394 4.297200 -52.851813 -0.589613 -10.448876 -13.790368 -49.103371 11.206522 -6.251623 2.189621 7.458226 -17.921633 2.490907 0.821878 -13.211919 6.098931 7.866536 0.000000 0.000000 0.000000 -16.839703 -1.433834 -3.770697 -24.609481 -0.250434 -7.609092 0.000000 0.000000 0.000000 2.203931 -12.363535 -13.301063 -44.762464 -11.708218 -20.463254 0.000000 0.000000 0.000000 -15.977025 -3.097478 -3.180601 -36.771411 -7.547763 -15.135989 0.000000 0.000000 0.000000 7.256615 27.071785 26.281491 -2.763959 -15.189658 -3.781988 0.000000 0.000000 0.000000 7.313194 3.768428 2.156557 39.822202 24.459551 1.427091 -33.304709 47.987022 -12.996759 -2.522724 -3.708193 -36.260261 5.218376 2.822304 -0.072302 27.165202 7.968170 -4.733011 0.000000 0.000000 0.000000 11.539782 10.950663 -5.306779 21.785295 12.468482 -18.682274 0.000000 0.000000 0.000000 6.662834 20.590065 -25.373346 3.786029 3.634159 -9.139944 0.000000 0.000000 0.000000 19.714291 14.783998 -4.924106 -0.703750 10.841056 -29.010666 0.000000 0.000000 0.000000 -12.242132 -21.880380 7.306560 10.737654 10.073747 -1.524422 0.000000 0.000000 0.000000 
